<svg xmlns="http://www.w3.org/2000/svg" width="20" height="20" viewBox="0 0 16 16" fill="none">
  <path d="M2.35931 0.800293C1.37531 0.800293 0.726562 1.47229 0.726562 2.36029C0.726562 3.22429 1.35094 3.91954 2.31094 3.91954C3.34294 3.91954 3.99094 3.22429 3.96694 2.36029C3.96694 1.47229 3.34331 0.800293 2.35931 0.800293ZM11.5746 4.92829C9.91856 4.92829 8.91094 5.88792 8.50294 6.55992H8.45531L8.31094 5.14429H5.64731C5.67131 6.05629 5.71894 7.11229 5.71894 8.36029V15.1995H8.79056V9.41554C8.79056 9.12754 8.81456 8.83992 8.88656 8.62392C9.12656 8.04792 9.63094 7.44754 10.4709 7.44754C11.5989 7.44754 12.0309 8.33592 12.0309 9.63192V15.1995H15.1269V9.27229C15.1269 6.29629 13.5906 4.92829 11.5746 4.92829ZM0.799312 5.14429V15.1995H3.87094V5.14429H0.799312Z" fill="#FEFEFE"/>
</svg>