<svg xmlns="http://www.w3.org/2000/svg" width="20" height="20" viewBox="0 0 20 20" fill="none">
  <g clip-path="url(#clip0_2154_134)">
    <path d="M12.7267 11.0083C13.2083 11.1625 13.625 11.355 14.0125 11.5917L13.9867 11.5767C14.4275 11.7725 14.8083 12.0017 15.1558 12.2708L15.1433 12.2617C15.16 12.3125 15.17 12.37 15.17 12.4308C15.17 12.44 15.17 12.4483 15.1692 12.4575V12.4567C15.1567 12.8142 15.0775 13.15 14.9433 13.4558L14.95 13.4383C14.7575 13.8242 14.4367 14.1217 14.0442 14.28L14.0325 14.2842C13.65 14.4867 13.1983 14.6117 12.7192 14.6267H12.7142C11.7975 14.505 10.9692 14.2233 10.2242 13.8083L10.26 13.8267C9.40833 13.4367 8.68083 12.9242 8.06333 12.3025L8.0625 12.3017C7.37583 11.5875 6.74667 10.8058 6.18917 9.97333L6.15 9.91167C5.62 9.22083 5.2825 8.35667 5.23333 7.41583L5.2325 7.405V7.30167C5.25917 6.48917 5.6225 5.76583 6.18583 5.2625L6.18833 5.26C6.36083 5.08833 6.5975 4.98083 6.85917 4.97583H6.86C6.94417 4.97833 7.025 4.985 7.10333 4.99667L7.0925 4.995C7.165 5.00583 7.24917 5.0125 7.33583 5.01417H7.33833C7.35417 5.0125 7.37167 5.01167 7.39 5.01167C7.49833 5.01167 7.59917 5.04417 7.68333 5.09917L7.68167 5.09833C7.77083 5.19667 7.83917 5.31583 7.88 5.44667L7.88167 5.45333C7.95056 5.62556 8.09278 6.00444 8.30833 6.59C8.42083 6.85167 8.53083 7.17417 8.61917 7.50583L8.63083 7.55833C8.5675 7.85917 8.4075 8.115 8.18667 8.29917L8.18417 8.30083C7.88694 8.61528 7.73833 8.81528 7.73833 8.90083C7.74167 8.97417 7.76667 9.04083 7.80583 9.09583L7.805 9.095C8.1425 9.78583 8.585 10.3725 9.11833 10.8608L9.1225 10.865C9.685 11.3725 10.3275 11.8083 11.0242 12.1483L11.0733 12.17C11.1542 12.2225 11.2508 12.2558 11.3558 12.2608H11.3575C11.4869 12.2608 11.7197 12.0519 12.0558 11.6342C12.3919 11.2164 12.6153 11.0075 12.7258 11.0075L12.7267 11.0083ZM10.1042 17.855H10.1225C11.2533 17.855 12.3283 17.6175 13.3008 17.1892L13.25 17.2092C15.2133 16.3808 16.7442 14.85 17.5525 12.9392L17.5725 12.8867C17.9808 11.9592 18.2183 10.8775 18.2183 9.74083C18.2183 8.60417 17.9808 7.5225 17.5525 6.54333L17.5725 6.595C16.7442 4.63167 15.2133 3.10083 13.3025 2.2925L13.25 2.2725C12.3225 1.86417 11.2408 1.62667 10.1042 1.62667C8.9675 1.62667 7.88583 1.86417 6.90667 2.2925L6.95833 2.2725C4.995 3.10083 3.46417 4.63167 2.65583 6.5425L2.63583 6.595C2.2275 7.52583 1.99 8.61083 1.99 9.75083C1.99 11.535 2.57167 13.1842 3.55583 14.5175L3.54 14.4958L2.51917 17.5067L5.64583 16.5117C6.8875 17.3533 8.41833 17.855 10.0667 17.855H10.1058H10.1042ZM10.1042 0H10.1317C11.4883 0 12.7783 0.285 13.9442 0.799167L13.8833 0.775C16.2375 1.7725 18.0733 3.60833 19.0467 5.89917L19.0708 5.9625C19.5608 7.07667 19.8458 8.37583 19.8458 9.74167C19.8458 11.1075 19.5608 12.4067 19.0467 13.5825L19.0708 13.5208C18.0733 15.875 16.2375 17.7108 13.9467 18.6842L13.8833 18.7083C12.7775 19.1983 11.4875 19.4833 10.1308 19.4833C10.1217 19.4833 10.1117 19.4833 10.1025 19.4833H10.1042C10.0908 19.4833 10.0758 19.4833 10.06 19.4833C8.34417 19.4833 6.73333 19.0325 5.34 18.2433L5.3875 18.2683L0 20L1.7575 14.7675C0.881667 13.3392 0.3625 11.61 0.3625 9.75917C0.3625 8.3875 0.6475 7.0825 1.16167 5.9L1.1375 5.9625C2.135 3.60833 3.97083 1.7725 6.26167 0.799167L6.325 0.775C7.43083 0.285 8.72083 0 10.0775 0H10.105L10.1042 0Z" fill="white"/>
  </g>
  <defs>
    <clipPath id="clip0_2154_134">
      <rect width="20" height="20" fill="white"/>
    </clipPath>
  </defs>
</svg>